# xmcd
#
# Track frame offsets:
#	150
#	24950
#	46809
#	73897
#	103050
#	132111
#	156756
#	199175
#	231481
#	248621
#
# Disc length: 3821 seconds
#
# Revision: 1
# Processed by: cddbd v1.5.2PL0 Copyright (c) Steve Scherf et al.
# Submitted via: audiograbber 1.83.01
#
DISCID=830eeb0a
DTITLE=Goran Bare - Srce
DYEAR=2006
DGENRE=Blues
TTITLE0=Izabirem Zivot
TTITLE1=Svako Jutro
TTITLE2=I Dok Plese Sama S Kisom
TTITLE3=Uh Kakav Svijet
TTITLE4=Ovisnicki Blues
TTITLE5=Niko Ne Moze Sam
TTITLE6=Pomozi Mi
TTITLE7=Profesionalno Na Balkanu Sviram Rokenrol
TTITLE8=Waltz Za Pokojne
TTITLE9=Tamna Je Noc
EXTD=
EXTT0=
EXTT1=
EXTT2=
EXTT3=
EXTT4=
EXTT5=
EXTT6=
EXTT7=
EXTT8=
EXTT9=
PLAYORDER=
